<?xml version="1.0" encoding="UTF-8" standalone="no"?>
<!-- Generator: Adobe Illustrator 19.0.0, SVG Export Plug-In . SVG Version: 6.00 Build 0)  -->

<svg
   xmlns:dc="http://purl.org/dc/elements/1.1/"
   xmlns:cc="http://creativecommons.org/ns#"
   xmlns:rdf="http://www.w3.org/1999/02/22-rdf-syntax-ns#"
   xmlns:svg="http://www.w3.org/2000/svg"
   xmlns="http://www.w3.org/2000/svg"
   xmlns:sodipodi="http://sodipodi.sourceforge.net/DTD/sodipodi-0.dtd"
   xmlns:inkscape="http://www.inkscape.org/namespaces/inkscape"
   version="1.1"
   id="Capa_1"
   x="0px"
   y="0px"
   viewBox="0 0 502.664 502.664"
   style="enable-background:new 0 0 502.664 502.664;"
   xml:space="preserve"
   inkscape:version="0.91 r13725"
   sodipodi:docname="acquire.svg"><metadata
     id="metadata79"><rdf:RDF><cc:Work
         rdf:about=""><dc:format>image/svg+xml</dc:format><dc:type
           rdf:resource="http://purl.org/dc/dcmitype/StillImage" /></cc:Work></rdf:RDF></metadata><defs
     id="defs77" /><sodipodi:namedview
     pagecolor="#ffffff"
     bordercolor="#666666"
     borderopacity="1"
     objecttolerance="10"
     gridtolerance="10"
     guidetolerance="10"
     inkscape:pageopacity="0"
     inkscape:pageshadow="2"
     inkscape:window-width="945"
     inkscape:window-height="663"
     id="namedview75"
     showgrid="false"
     inkscape:zoom="0.46949851"
     inkscape:cx="-121.40613"
     inkscape:cy="251.332"
     inkscape:window-x="0"
     inkscape:window-y="0"
     inkscape:window-maximized="0"
     inkscape:current-layer="Capa_1" /><g
     id="g3"
     style="fill:#2c3e50;fill-opacity:1"><g
       id="g5"
       style="fill:#2c3e50;fill-opacity:1"><g
         id="g7"
         style="fill:#2c3e50;fill-opacity:1"><path
           style="fill:#2c3e50;fill-opacity:1"
           d="M472.077,25.432H30.609C13.762,25.432,0,39.216,0,56.019v317.414     c0,16.782,13.762,30.587,30.609,30.587h441.468c16.825,0,30.587-13.805,30.587-30.587V56.019     C502.664,39.216,488.902,25.432,472.077,25.432z M464.376,350.935H38.288V68.336h426.088V350.935z"
           id="path9" /><polygon
           style="fill:#2c3e50;fill-opacity:1"
           points="194.698,418.538 136.931,477.232 366.574,477.232 308.807,418.538    "
           id="polygon11" /><path
           style="fill:#2c3e50;fill-opacity:1"
           d="M103.346,294.269c11.282,0,20.471-9.168,20.471-20.449c0-2.049-0.604-3.904-1.165-5.781     c26.165-21.096,72.392-58.284,93.466-74.527c3.322,2.351,7.183,4.034,11.562,4.034c3.645,0,6.881-1.208,9.836-2.869     c13.546,11.519,36.584,31.105,52.935,45.018c-0.216,1.186-0.69,2.243-0.69,3.494c0,11.303,9.189,20.471,20.492,20.471     s20.492-9.168,20.492-20.471c0-2.006-0.604-3.84-1.143-5.673l52.935-47.801c2.847,1.488,5.91,2.545,9.362,2.545     c11.303,0,20.471-9.168,20.471-20.471s-9.168-20.471-20.471-20.471s-20.449,9.168-20.449,20.492c0,2.696,0.582,5.263,1.531,7.614     c-14.798,13.352-37.619,33.974-51.856,46.83c-3.171-2.049-6.752-3.559-10.85-3.559c-4.832,0-9.06,1.92-12.554,4.702     c-13.525-11.497-35.398-30.091-50.95-43.314c0.82-2.2,1.402-4.508,1.402-7.01c0-11.303-9.168-20.471-20.471-20.471     s-20.471,9.168-20.471,20.471c0,2.502,0.604,4.832,1.424,7.032l-93.962,73.103c-3.279-2.243-7.054-3.883-11.325-3.883     c-11.303,0-20.471,9.168-20.471,20.471C82.875,285.101,92.043,294.269,103.346,294.269z"
           id="path13" /></g></g><g
       id="g15"
       style="fill:#2c3e50;fill-opacity:1" /><g
       id="g17"
       style="fill:#2c3e50;fill-opacity:1" /><g
       id="g19"
       style="fill:#2c3e50;fill-opacity:1" /><g
       id="g21"
       style="fill:#2c3e50;fill-opacity:1" /><g
       id="g23"
       style="fill:#2c3e50;fill-opacity:1" /><g
       id="g25"
       style="fill:#2c3e50;fill-opacity:1" /><g
       id="g27"
       style="fill:#2c3e50;fill-opacity:1" /><g
       id="g29"
       style="fill:#2c3e50;fill-opacity:1" /><g
       id="g31"
       style="fill:#2c3e50;fill-opacity:1" /><g
       id="g33"
       style="fill:#2c3e50;fill-opacity:1" /><g
       id="g35"
       style="fill:#2c3e50;fill-opacity:1" /><g
       id="g37"
       style="fill:#2c3e50;fill-opacity:1" /><g
       id="g39"
       style="fill:#2c3e50;fill-opacity:1" /><g
       id="g41"
       style="fill:#2c3e50;fill-opacity:1" /><g
       id="g43"
       style="fill:#2c3e50;fill-opacity:1" /></g><g
     id="g45"
     style="fill:#2c3e50;fill-opacity:1" /><g
     id="g47"
     style="fill:#2c3e50;fill-opacity:1" /><g
     id="g49"
     style="fill:#2c3e50;fill-opacity:1" /><g
     id="g51"
     style="fill:#2c3e50;fill-opacity:1" /><g
     id="g53"
     style="fill:#2c3e50;fill-opacity:1" /><g
     id="g55"
     style="fill:#2c3e50;fill-opacity:1" /><g
     id="g57"
     style="fill:#2c3e50;fill-opacity:1" /><g
     id="g59"
     style="fill:#2c3e50;fill-opacity:1" /><g
     id="g61"
     style="fill:#2c3e50;fill-opacity:1" /><g
     id="g63"
     style="fill:#2c3e50;fill-opacity:1" /><g
     id="g65"
     style="fill:#2c3e50;fill-opacity:1" /><g
     id="g67"
     style="fill:#2c3e50;fill-opacity:1" /><g
     id="g69"
     style="fill:#2c3e50;fill-opacity:1" /><g
     id="g71"
     style="fill:#2c3e50;fill-opacity:1" /><g
     id="g73"
     style="fill:#2c3e50;fill-opacity:1" /></svg>