<?xml version="1.0" encoding="UTF-8" standalone="no"?>
<!-- Generator: Adobe Illustrator 19.0.0, SVG Export Plug-In . SVG Version: 6.00 Build 0)  -->

<svg
   xmlns:dc="http://purl.org/dc/elements/1.1/"
   xmlns:cc="http://creativecommons.org/ns#"
   xmlns:rdf="http://www.w3.org/1999/02/22-rdf-syntax-ns#"
   xmlns:svg="http://www.w3.org/2000/svg"
   xmlns="http://www.w3.org/2000/svg"
   xmlns:sodipodi="http://sodipodi.sourceforge.net/DTD/sodipodi-0.dtd"
   xmlns:inkscape="http://www.inkscape.org/namespaces/inkscape"
   version="1.1"
   id="Capa_1"
   x="0px"
   y="0px"
   viewBox="0 0 502.686 502.686"
   style="enable-background:new 0 0 502.686 502.686;"
   xml:space="preserve"
   inkscape:version="0.91 r13725"
   sodipodi:docname="document.svg"><metadata
     id="metadata83"><rdf:RDF><cc:Work
         rdf:about=""><dc:format>image/svg+xml</dc:format><dc:type
           rdf:resource="http://purl.org/dc/dcmitype/StillImage" /></cc:Work></rdf:RDF></metadata><defs
     id="defs81" /><sodipodi:namedview
     pagecolor="#ffffff"
     bordercolor="#666666"
     borderopacity="1"
     objecttolerance="10"
     gridtolerance="10"
     guidetolerance="10"
     inkscape:pageopacity="0"
     inkscape:pageshadow="2"
     inkscape:window-width="1154"
     inkscape:window-height="579"
     id="namedview79"
     showgrid="false"
     inkscape:zoom="0.46947796"
     inkscape:cx="-485.6458"
     inkscape:cy="251.343"
     inkscape:window-x="40"
     inkscape:window-y="86"
     inkscape:window-maximized="0"
     inkscape:current-layer="Capa_1" /><g
     id="g3"
     style="fill:#1976d2;fill-opacity:1"><g
       id="g5"
       style="fill:#1976d2;fill-opacity:1"><g
         id="g7"
         style="fill:#1976d2;fill-opacity:1"><path
           style="fill:#1976d2;fill-opacity:1"
           d="M410.6,0H32.313v451.476H410.6V0z M387.864,428.741c-20.622,0-312.172,0-332.816,0     c0-20.988,0-385.06,0-405.984c20.665,0,312.194,0,332.816,0C387.864,43.702,387.864,407.774,387.864,428.741z"
           id="path9" /><rect
           x="94.739"
           y="73.319"
           style="fill:#1976d2;fill-opacity:1"
           width="258.591"
           height="23.857"
           id="rect11" /><rect
           x="94.739"
           y="148.493"
           style="fill:#1976d2;fill-opacity:1"
           width="258.591"
           height="23.836"
           id="rect13" /><polygon
           style="fill:#1976d2;fill-opacity:1"
           points="426.174,51.166 426.174,73.923 447.594,73.923 447.594,479.885 114.757,479.885      114.757,464.117 91.978,464.117 91.978,502.686 470.372,502.686 470.372,51.166    "
           id="polygon15" /><path
           style="fill:#1976d2;fill-opacity:1"
           d="M104.403,325.352c4.487,0,8.585-1.273,12.36-3.128l32.442,26.532     c-0.173,1.251-0.733,2.33-0.733,3.624c0,15.704,12.727,28.409,28.409,28.409s28.409-12.727,28.409-28.409     c0-4.508-1.294-8.607-3.149-12.403c15.596-23.383,35.506-53.28,47.456-71.205c1.834,0.388,3.559,1.122,5.501,1.122     c6.816,0,12.835-2.718,17.731-6.73c10.678,6.234,24.548,14.323,36.498,21.29c-0.022,0.41-0.237,0.712-0.237,1.122     c0,15.704,12.727,28.409,28.409,28.409s28.387-12.727,28.387-28.409c0-15.682-12.705-28.409-28.387-28.409     c-6.946,0-13.072,2.783-18.033,6.924l-36.304-21.183c0.022-0.475,0.28-0.884,0.28-1.359c0-15.682-12.705-28.366-28.366-28.366     s-28.344,12.705-28.344,28.366c0,5.263,1.812,9.901,4.293,14.129c-14.905,22.39-34.362,51.576-46.55,69.889     c-2.459-0.733-4.897-1.575-7.593-1.575c-5.867,0-11.023,2.222-15.553,5.263c-8.995-7.377-20.126-16.48-30.07-24.612     c0.712-2.502,1.553-4.961,1.553-7.679c0-15.725-12.791-28.409-28.409-28.387c-15.725,0-28.43,12.684-28.43,28.387     C75.951,312.625,88.656,325.352,104.403,325.352z"
           id="path17" /></g></g><g
       id="g19"
       style="fill:#1976d2;fill-opacity:1" /><g
       id="g21"
       style="fill:#1976d2;fill-opacity:1" /><g
       id="g23"
       style="fill:#1976d2;fill-opacity:1" /><g
       id="g25"
       style="fill:#1976d2;fill-opacity:1" /><g
       id="g27"
       style="fill:#1976d2;fill-opacity:1" /><g
       id="g29"
       style="fill:#1976d2;fill-opacity:1" /><g
       id="g31"
       style="fill:#1976d2;fill-opacity:1" /><g
       id="g33"
       style="fill:#1976d2;fill-opacity:1" /><g
       id="g35"
       style="fill:#1976d2;fill-opacity:1" /><g
       id="g37"
       style="fill:#1976d2;fill-opacity:1" /><g
       id="g39"
       style="fill:#1976d2;fill-opacity:1" /><g
       id="g41"
       style="fill:#1976d2;fill-opacity:1" /><g
       id="g43"
       style="fill:#1976d2;fill-opacity:1" /><g
       id="g45"
       style="fill:#1976d2;fill-opacity:1" /><g
       id="g47"
       style="fill:#1976d2;fill-opacity:1" /></g><g
     id="g49"
     style="fill:#1976d2;fill-opacity:1" /><g
     id="g51"
     style="fill:#1976d2;fill-opacity:1" /><g
     id="g53"
     style="fill:#1976d2;fill-opacity:1" /><g
     id="g55"
     style="fill:#1976d2;fill-opacity:1" /><g
     id="g57"
     style="fill:#1976d2;fill-opacity:1" /><g
     id="g59"
     style="fill:#1976d2;fill-opacity:1" /><g
     id="g61"
     style="fill:#1976d2;fill-opacity:1" /><g
     id="g63"
     style="fill:#1976d2;fill-opacity:1" /><g
     id="g65"
     style="fill:#1976d2;fill-opacity:1" /><g
     id="g67"
     style="fill:#1976d2;fill-opacity:1" /><g
     id="g69"
     style="fill:#1976d2;fill-opacity:1" /><g
     id="g71"
     style="fill:#1976d2;fill-opacity:1" /><g
     id="g73"
     style="fill:#1976d2;fill-opacity:1" /><g
     id="g75"
     style="fill:#1976d2;fill-opacity:1" /><g
     id="g77"
     style="fill:#1976d2;fill-opacity:1" /></svg>